Patient4_TMGait_0pt8_01_right_49_GRF.mot
version=1
nRows=78
nColumns=19
inDegrees=no
endheader
time	F1x	F1y	F1z	M1x	M1y	M1z	F2x	F2y	F2z	M2x	M2y	M2z	EC1x	EC1y	EC1z	EC2x	EC2y	EC2z
55.17	-3.8485	726.5737	75.7667	-273.312	-81.2238	827.1695	11.7534	3.437	5.405	-0.28192	-4.3816	3.7887	-0.0592	0.0182	-0.0073	-0.0462	0.0165	0.9585
55.1814	-2.7661	725.8224	71.9366	-272.5617	-77.4573	821.4966	7.7122	3.0897	3.3396	0.12608	-2.5996	3.6943	-0.0592	0.0182	-0.0073	-0.0462	0.0165	0.9585
55.1927	-1.1779	725.4274	68.6813	-272.0362	-73.8737	815.6836	4.3439	2.8075	1.6888	0.45352	-1.1826	3.6066	-0.0592	0.0182	-0.0073	-0.0462	0.0165	0.9585
55.2041	0.87258	725.6544	66.1453	-271.8542	-70.6025	810.2225	1.7981	2.6135	0.48831	0.6977	-0.15435	3.5497	-0.0592	0.0182	-0.0073	-0.0462	0.0165	0.9585
55.2154	3.3204	726.7662	64.3328	-272.1022	-67.6866	805.5353	0.056206	2.5044	-0.30225	0.86967	0.52203	3.5198	-0.0592	0.0182	-0.0073	-0.0462	0.0165	0.9585
55.2268	6.0857	728.9574	63.1584	-272.8229	-65.1009	801.9417	-1.0183	2.4625	-0.77019	0.98176	0.92884	3.5127	-0.0592	0.0182	-0.0073	-0.0462	0.0165	0.9585
55.2381	9.1172	732.3002	62.4989	-273.9991	-62.7923	799.5925	-1.5894	2.4395	-1.0058	1.0399	1.1477	3.4738	-0.0592	0.0182	-0.0073	-0.0462	0.0165	0.9585
55.2495	12.3252	736.7037	62.2638	-275.5457	-60.7446	798.4394	-1.8177	2.3852	-1.099	1.044	1.259	3.3547	-0.0592	0.0182	-0.0073	-0.0462	0.0165	0.9585
55.2609	15.6828	741.9024	62.3294	-277.3142	-58.8952	798.235	-1.8285	2.1892	-1.1187	0.97149	1.3199	3.018	-0.0592	0.0182	-0.0073	-0.0462	0.0165	0.9585
55.2722	19.1516	747.4575	62.6538	-279.0965	-57.2406	798.5599	-1.7319	1.7691	-1.1227	0.79954	1.3856	2.3718	-0.0592	0.0182	-0.0073	-0.0462	0.0165	0.9585
55.2836	22.7501	752.8194	63.1594	-280.6528	-55.7216	798.8397	-1.5845	0.99003	-1.1492	0.48795	1.4846	1.2621	-0.0592	0.0182	-0.0073	-0.0462	0.0165	0.9585
55.2949	26.5053	757.3969	63.8603	-281.7343	-54.3548	798.4751	-1.4271	-0.25052	-1.2034	0.0017819	1.6157	-0.42678	-0.0592	0.0182	-0.0073	-0.0462	0.0165	0.9585
55.3063	30.4679	760.6795	64.7338	-282.1414	-53.1137	796.9183	-1.2388	-2.0351	-1.2812	-0.68719	1.7472	-2.808	-0.0592	0.0182	-0.0073	-0.0462	0.0165	0.9585
55.3176	34.6627	762.3993	65.7907	-281.7775	-52.0026	793.8882	-1.0077	-4.3506	-1.3427	-1.5736	1.8112	-5.8545	-0.0592	0.0182	-0.0073	-0.0462	0.0165	0.9585
55.329	39.1356	762.5641	67.0171	-280.666	-50.9952	789.377	-0.66186	-7.068	-1.3464	-2.6048	1.7228	-9.4144	-0.0592	0.0182	-0.0073	-0.0462	0.0165	0.9585
55.3404	43.8527	761.4527	68.4097	-278.9407	-50.0955	783.6518	-0.16883	-9.8112	-1.2206	-3.637	1.3734	-13.0089	-0.0592	0.0182	-0.0073	-0.0462	0.0165	0.9585
55.3517	48.7872	759.5536	69.9539	-276.8222	-49.2932	777.1887	0.53517	-11.9026	-0.87369	-4.4075	0.62832	-15.7622	-0.0592	0.0182	-0.0073	-0.0462	0.0165	0.9585
55.3631	53.8409	757.4396	71.5876	-274.5683	-48.5544	770.5616	1.4441	-12.198	-0.19021	-4.4837	-0.65131	-16.1704	-0.0592	0.0182	-0.0073	-0.0462	0.0165	0.9585
55.3744	58.8758	755.5928	73.2575	-272.4134	-47.8668	764.2524	2.5396	-9.0705	0.95265	-3.2493	-2.6009	-12.1133	-0.0592	0.0182	-0.0073	-0.0462	0.0165	0.9585
55.3858	63.7989	754.3749	74.8396	-270.5512	-47.1429	758.6232	3.6914	-0.35382	2.6633	0.10497	-5.2967	-0.7491	-0.0592	0.0182	-0.0073	-0.0462	0.0165	0.9585
55.3971	68.5719	753.8148	76.2078	-269.0557	-46.2661	753.6843	4.6754	16.4744	4.9908	6.5189	-8.6913	21.2277	-0.0592	0.0182	-0.0073	-0.0462	0.0165	0.9585
55.4085	73.2338	753.4517	77.1792	-267.812	-45.0443	748.9763	5.0439	44.0009	7.859	16.9442	-12.4935	57.2427	-0.0592	0.0182	-0.0073	-0.0462	0.0165	0.9585
55.4199	77.8171	752.0638	77.5557	-266.4158	-43.2829	743.3334	4.1944	84.1997	10.9768	32.0941	-16.0577	109.9208	-0.0592	0.0182	-0.0073	-0.0462	0.0165	0.9585
55.4312	82.2685	747.6659	77.1038	-264.1684	-40.8007	734.8876	1.1607	137.5343	13.7443	52.1005	-18.2209	179.9259	-0.0592	0.0182	-0.0073	-0.0462	0.0165	0.9585
55.4426	86.412	737.6999	75.5992	-260.157	-37.4752	721.2558	-5.4131	201.8817	15.3278	76.1064	-17.3714	264.5363	-0.0592	0.0182	-0.0073	-0.0462	0.0165	0.9585
55.4539	89.8959	719.4765	72.8279	-253.4143	-33.2672	699.9535	-16.2139	271.6857	14.5275	101.9594	-11.737	356.5243	-0.0592	0.0182	-0.0073	-0.0462	0.0165	0.9585
55.4653	92.1878	690.5862	68.6596	-243.0678	-28.2801	668.7628	-29.7832	338.6973	10.2832	126.5481	-0.63024	444.9539	-0.0592	0.0182	-0.0073	-0.0462	0.0165	0.9585
55.4766	92.639	649.4562	63.1168	-228.5314	-22.7995	626.2968	-43.3831	395.4388	2.8894	147.1238	14.4737	519.6577	-0.0592	0.0182	-0.0073	-0.0462	0.0165	0.9585
55.488	90.5896	595.8541	56.4148	-209.6783	-17.2794	572.4409	-54.8775	438.5342	-6.4686	162.4766	31.18	575.8841	-0.0592	0.0182	-0.0073	-0.0462	0.0165	0.9585
55.4994	85.5543	531.0923	48.9443	-186.9212	-12.2593	508.5435	-63.308	469.0052	-16.5399	173.0449	47.511	614.7483	-0.0592	0.0182	-0.0073	-0.0462	0.0165	0.9585
55.5107	77.3807	458.0218	41.1808	-161.2236	-8.2197	437.3732	-68.7155	491.0021	-26.3192	180.4085	62.1971	641.6935	-0.0592	0.0182	-0.0073	-0.0462	0.0165	0.9585
55.5221	66.3487	380.7498	33.5625	-134.0124	-5.4349	362.8265	-71.5583	509.4818	-34.9337	186.4516	74.3622	663.2536	-0.0592	0.0182	-0.0073	-0.0462	0.0165	0.9585
55.5334	53.3253	304.0277	26.4617	-106.9641	-3.9073	289.3272	-72.6009	528.6111	-42.0793	192.7227	83.9187	684.9681	-0.0592	0.0182	-0.0073	-0.0462	0.0165	0.9585
55.5448	39.6235	232.4256	20.1613	-81.7034	-3.3871	221.0769	-72.5172	550.8535	-47.8466	200.1205	91.2645	710.1079	-0.0592	0.0182	-0.0073	-0.0462	0.0165	0.9585
55.5561	26.7145	169.4022	14.8347	-59.4703	-3.4697	161.1871	-71.9457	577.0614	-52.6602	208.9161	97.1625	739.8912	-0.0592	0.0182	-0.0073	-0.0462	0.0165	0.9585
55.5675	15.7363	116.8461	10.5291	-40.9469	-3.7547	111.3228	-71.2232	606.6752	-56.9899	218.8638	102.3168	773.6906	-0.0592	0.0182	-0.0073	-0.0462	0.0165	0.9585
55.5789	7.2696	75.1779	7.1812	-26.2887	-3.9573	71.8108	-70.5525	638.071	-61.1309	229.3419	107.1573	809.548	-0.0592	0.0182	-0.0073	-0.0462	0.0165	0.9585
55.5902	1.37	43.8208	4.6419	-15.2891	-3.9059	42.097	-69.9779	668.9462	-65.228	239.5095	111.8512	844.5929	-0.0592	0.0182	-0.0073	-0.0462	0.0165	0.9585
55.6016	-2.1948	21.6414	2.7433	-7.5368	-3.5417	21.1014	-69.5016	697.0099	-69.0691	248.559	116.1482	875.9556	-0.0592	0.0182	-0.0073	-0.0462	0.0165	0.9585
55.6129	-3.871	7.1877	1.3917	-2.5038	-2.9533	7.4329	-68.9473	720.4662	-72.359	255.8875	119.6283	901.3748	-0.0592	0.0182	-0.0073	-0.0462	0.0165	0.9585
55.6243	-4.2126	-1.144	0.48578	0.38533	-2.2653	-0.4612	-68.1411	738.2279	-74.71	261.1573	121.7853	919.4888	-0.0592	0.0182	-0.0073	-0.0462	0.0165	0.9585
55.6356	-3.8141	-4.9885	-0.038305	1.7146	-1.6373	-4.1121	-66.9131	749.7605	-75.985	264.2243	122.3881	929.6344	-0.0592	0.0182	-0.0073	-0.0462	0.0165	0.9585
55.647	-3.0575	-5.8706	-0.29531	2.0161	-1.1106	-4.967	-65.119	755.108	-76.1558	265.1394	121.3687	931.8849	-0.0592	0.0182	-0.0073	-0.0462	0.0165	0.9585
55.6584	-2.2345	-5.0361	-0.37415	1.7236	-0.70977	-4.1619	-62.6968	754.8351	-75.3865	264.1257	118.9119	926.9705	-0.0592	0.0182	-0.0073	-0.0462	0.0165	0.9585
55.6697	-1.4802	-3.4094	-0.34481	1.1553	-0.42685	-2.6	-59.6754	750.0212	-73.8791	261.5807	115.2967	916.2571	-0.0592	0.0182	-0.0073	-0.0462	0.0165	0.9585
55.6811	-0.89372	-1.5847	-0.26585	0.51999	-0.248	-0.83647	-56.14	742.1003	-71.8969	258.0214	110.8929	901.5394	-0.0592	0.0182	-0.0073	-0.0462	0.0165	0.9585
55.6924	-0.46135	0.082779	-0.15503	-0.059668	-0.16106	0.76164	-52.2591	732.7061	-69.6813	254.0327	106.0743	884.847	-0.0592	0.0182	-0.0073	-0.0462	0.0165	0.9585
55.7038	-0.1979	1.4367	-0.04981	-0.52976	-0.13515	2.0451	-48.2231	723.4694	-67.4281	250.1953	101.1663	868.188	-0.0592	0.0182	-0.0073	-0.0462	0.0165	0.9585
55.7151	-0.039912	2.4168	0.048323	-0.87341	-0.14671	2.9427	-44.2004	715.8259	-65.3184	247.0152	96.4545	853.3128	-0.0592	0.0182	-0.0073	-0.0462	0.0165	0.9585
55.7265	0.024436	3.063	0.11795	-1.1061	-0.16896	3.5142	-40.3097	710.8552	-63.4597	244.8669	92.1192	841.4979	-0.0592	0.0182	-0.0073	-0.0462	0.0165	0.9585
55.7379	0.032234	3.4011	0.17405	-1.2429	-0.20059	3.7837	-36.6064	709.1684	-61.9514	243.9539	88.2898	833.4379	-0.0592	0.0182	-0.0073	-0.0462	0.0165	0.9585
55.7492	-0.0036059	3.5383	0.21031	-1.318	-0.23284	3.8798	-33.0783	710.8999	-60.8072	244.3099	84.9755	829.2427	-0.0592	0.0182	-0.0073	-0.0462	0.0165	0.9585
55.7606	-0.056209	3.5279	0.23993	-1.3507	-0.27144	3.8395	-29.6708	715.7762	-60.025	245.8212	82.1457	828.5393	-0.0592	0.0182	-0.0073	-0.0462	0.0165	0.9585
55.7719	-0.13266	3.4678	0.25711	-1.3661	-0.31456	3.7837	-26.3097	723.2553	-59.5571	248.28	79.7158	830.6638	-0.0592	0.0182	-0.0073	-0.0462	0.0165	0.9585
55.7833	-0.20116	3.3867	0.27405	-1.3682	-0.36317	3.7255	-22.9437	732.6265	-59.3568	251.4197	77.6046	834.7914	-0.0592	0.0182	-0.0073	-0.0462	0.0165	0.9585
55.7946	-0.2928	3.3204	0.28491	-1.3612	-0.41965	3.7027	-19.5464	743.1275	-59.3867	254.9497	75.7487	840.0766	-0.0592	0.0182	-0.0073	-0.0462	0.0165	0.9585
55.806	-0.38292	3.2456	0.30506	-1.3348	-0.4942	3.6625	-16.1083	753.9347	-59.5987	258.5603	74.0806	845.6334	-0.0592	0.0182	-0.0073	-0.0462	0.0165	0.9585
55.8174	-0.50522	3.1213	0.3324	-1.2732	-0.5978	3.5669	-12.6149	764.2576	-59.9696	261.9528	72.5587	850.6295	-0.0592	0.0182	-0.0073	-0.0462	0.0165	0.9585
55.8287	-0.63916	2.8626	0.38371	-1.1477	-0.74166	3.2812	-9.0409	773.3726	-60.4657	264.8603	71.1346	854.3095	-0.0592	0.0182	-0.0073	-0.0462	0.0165	0.9585
55.8401	-0.80555	2.3795	0.45936	-0.92437	-0.92814	2.7085	-5.3293	780.7103	-61.0651	267.0792	69.7665	856.0953	-0.0592	0.0182	-0.0073	-0.0462	0.0165	0.9585
55.8514	-0.96038	1.5491	0.57106	-0.56167	-1.1521	1.6693	-1.4335	785.9016	-61.7371	268.4838	68.4083	855.6067	-0.0592	0.0182	-0.0073	-0.0462	0.0165	0.9585
55.8628	-1.101	0.29504	0.70234	-0.02915	-1.3862	0.074491	2.6454	788.7397	-62.4619	269.0122	67.0357	852.645	-0.0592	0.0182	-0.0073	-0.0462	0.0165	0.9585
55.8741	-1.1252	-1.4348	0.8297	0.69064	-1.5648	-2.1539	6.8627	789.1656	-63.2476	268.6563	65.6673	847.1994	-0.0592	0.0182	-0.0073	-0.0462	0.0165	0.9585
55.8855	-0.97176	-3.5679	0.90324	1.5682	-1.5892	-4.9048	11.1231	787.2121	-64.1009	267.4424	64.3413	839.3544	-0.0592	0.0182	-0.0073	-0.0462	0.0165	0.9585
55.8969	-0.46439	-5.8723	0.8645	2.5032	-1.3159	-7.8919	15.2997	782.9952	-65.0465	265.4274	63.1247	829.2746	-0.0592	0.0182	-0.0073	-0.0462	0.0165	0.9585
55.9082	0.53197	-7.8451	0.62728	3.2884	-0.56805	-10.455	19.2954	776.7421	-66.0805	262.7095	62.0503	817.2274	-0.0592	0.0182	-0.0073	-0.0462	0.0165	0.9585
55.9196	2.2212	-8.6761	0.079644	3.5873	0.87761	-11.5761	23.0156	768.8384	-67.1716	259.4416	61.1275	803.6354	-0.0592	0.0182	-0.0073	-0.0462	0.0165	0.9585
55.9309	4.7244	-7.1355	-0.9076	2.8979	3.2393	-9.6583	26.4241	759.8304	-68.2738	255.8303	60.3341	789.0645	-0.0592	0.0182	-0.0073	-0.0462	0.0165	0.9585
55.9423	8.1191	-1.6041	-2.46	0.55345	6.7	-2.638	29.5158	750.3633	-69.3039	252.1134	59.6018	774.1839	-0.0592	0.0182	-0.0073	-0.0462	0.0165	0.9585
55.9536	12.2514	9.8869	-4.6516	-4.2534	11.2863	12.0423	32.3429	741.0127	-70.1678	248.5055	58.834	759.567	-0.0592	0.0182	-0.0073	-0.0462	0.0165	0.9585
55.965	16.7159	29.4098	-7.4549	-12.3725	16.766	37.0777	34.9524	732.1453	-70.7266	245.1432	57.887	745.6026	-0.0592	0.0182	-0.0073	-0.0462	0.0165	0.9585
55.9764	20.5912	58.7457	-10.6411	-24.5232	22.4455	74.8125	37.4199	723.6482	-70.8312	241.9988	56.5986	732.2086	-0.0592	0.0182	-0.0073	-0.0462	0.0165	0.9585
55.9877	22.4195	98.7048	-13.7291	-41.0192	27.0974	126.3349	39.7784	714.8152	-70.3106	238.8376	54.7973	718.7293	-0.0592	0.0182	-0.0073	-0.0462	0.0165	0.9585
55.9991	20.369	148.5101	-16.0375	-61.509	29.1041	190.715	42.0932	704.2528	-69.0109	235.1908	52.3237	703.8197	-0.0592	0.0182	-0.0073	-0.0462	0.0165	0.9585
56.0104	13.3783	205.58	-16.693	-84.8735	26.8898	264.6456	44.326	690.1417	-66.7908	230.4411	49.0576	685.7478	-0.0592	0.0182	-0.0073	-0.0462	0.0165	0.9585
56.0218	2.312	265.3544	-14.5886	-109.163	19.3936	342.1835	46.4051	670.5075	-63.5537	223.9184	44.9351	662.6101	-0.0592	0.0182	-0.0073	-0.0462	0.0165	0.9585
56.0331	-10.331	321.5774	-9.0074	-131.8114	6.8225	414.9705	48.1432	643.5872	-59.2943	215.0181	40.016	632.7426	-0.0592	0.0182	-0.0073	-0.0462	0.0165	0.9585
56.0445	-22.1288	369.1416	-0.57163	-150.7914	-8.945	476.0634	49.3089	608.2194	-54.1046	203.3357	34.4744	595.0699	-0.0592	0.0182	-0.0073	-0.0462	0.0165	0.9585
